<?xml version="1.0" encoding="UTF-8" standalone="no"?>
<!DOCTYPE svg PUBLIC "-//W3C//DTD SVG 1.1//EN"
 "http://www.w3.org/Graphics/SVG/1.1/DTD/svg11.dtd">
<!-- Generated by graphviz version 2.38.0 (20140413.2041)
 -->
<!-- Title: controllers_diagram Pages: 1 -->
<svg width="428pt" height="485pt"
 viewBox="0.00 0.00 428.00 485.00" xmlns="http://www.w3.org/2000/svg" xmlns:xlink="http://www.w3.org/1999/xlink">
<g id="graph0" class="graph" transform="scale(1 1) rotate(0) translate(132 273.5)">
<title>controllers_diagram</title>
<polygon fill="none" stroke="none" points="-132,211.5 -132,-273.5 296,-273.5 296,211.5 -132,211.5"/>
<!-- _diagram_info -->
<g id="node1" class="node"><title>_diagram_info</title>
<text text-anchor="start" x="-120" y="-191.6" font-family="Times,serif" font-size="13.00">Controllers diagram</text>
<text text-anchor="start" x="-120" y="-177.6" font-family="Times,serif" font-size="13.00">Date: Nov 01 2017 &#45; 14:12</text>
<text text-anchor="start" x="-120" y="-163.6" font-family="Times,serif" font-size="13.00">Migration version: 0</text>
<text text-anchor="start" x="-120" y="-149.6" font-family="Times,serif" font-size="13.00">Generated by RailRoady 1.5.3</text>
<text text-anchor="start" x="-120" y="-135.6" font-family="Times,serif" font-size="13.00">http://railroady.prestonlee.com</text>
</g>
<!-- CommentsController -->
<g id="node2" class="node"><title>CommentsController</title>
<path fill="none" stroke="black" d="M172,-161C172,-161 280,-161 280,-161 286,-161 292,-167 292,-173 292,-173 292,-257 292,-257 292,-263 286,-269 280,-269 280,-269 172,-269 172,-269 166,-269 160,-263 160,-257 160,-257 160,-173 160,-173 160,-167 166,-161 172,-161"/>
<text text-anchor="middle" x="226" y="-253.8" font-family="Times,serif" font-size="14.00">CommentsController</text>
<polyline fill="none" stroke="black" points="160,-246 292,-246 "/>
<text text-anchor="start" x="168" y="-230.8" font-family="Times,serif" font-size="14.00">create</text>
<polyline fill="none" stroke="black" points="160,-223 292,-223 "/>
<polyline fill="none" stroke="black" points="160,-199 292,-199 "/>
<text text-anchor="start" x="168" y="-183.8" font-family="Times,serif" font-size="14.00">_layout</text>
<text text-anchor="start" x="168" y="-168.8" font-family="Times,serif" font-size="14.00">comment_params</text>
</g>
<!-- ApplicationController -->
<g id="node3" class="node"><title>ApplicationController</title>
<path fill="none" stroke="black" d="M92,207C92,207 204,207 204,207 210,207 216,201 216,195 216,195 216,125 216,125 216,119 210,113 204,113 204,113 92,113 92,113 86,113 80,119 80,125 80,125 80,195 80,195 80,201 86,207 92,207"/>
<text text-anchor="middle" x="148" y="128.2" font-family="Times,serif" font-size="14.00">ApplicationController</text>
<polyline fill="none" stroke="black" points="80,136 216,136 "/>
<polyline fill="none" stroke="black" points="80,160 216,160 "/>
<polyline fill="none" stroke="black" points="80,184 216,184 "/>
<text text-anchor="start" x="88" y="199.2" font-family="Times,serif" font-size="14.00">_layout</text>
</g>
<!-- IdolsController -->
<g id="node4" class="node"><title>IdolsController</title>
<path fill="none" stroke="black" d="M92.5,79.5C92.5,79.5 167.5,79.5 167.5,79.5 173.5,79.5 179.5,73.5 179.5,67.5 179.5,67.5 179.5,-121.5 179.5,-121.5 179.5,-127.5 173.5,-133.5 167.5,-133.5 167.5,-133.5 92.5,-133.5 92.5,-133.5 86.5,-133.5 80.5,-127.5 80.5,-121.5 80.5,-121.5 80.5,67.5 80.5,67.5 80.5,73.5 86.5,79.5 92.5,79.5"/>
<text text-anchor="middle" x="130" y="-118.3" font-family="Times,serif" font-size="14.00">IdolsController</text>
<polyline fill="none" stroke="black" points="80.5,-110.5 179.5,-110.5 "/>
<text text-anchor="start" x="88.5" y="-95.3" font-family="Times,serif" font-size="14.00">create</text>
<text text-anchor="start" x="88.5" y="-80.3" font-family="Times,serif" font-size="14.00">destroy</text>
<text text-anchor="start" x="88.5" y="-65.3" font-family="Times,serif" font-size="14.00">edit</text>
<text text-anchor="start" x="88.5" y="-50.3" font-family="Times,serif" font-size="14.00">index</text>
<text text-anchor="start" x="88.5" y="-35.3" font-family="Times,serif" font-size="14.00">new</text>
<text text-anchor="start" x="88.5" y="-20.3" font-family="Times,serif" font-size="14.00">show</text>
<text text-anchor="start" x="88.5" y="-5.3" font-family="Times,serif" font-size="14.00">update</text>
<polyline fill="none" stroke="black" points="80.5,2.5 179.5,2.5 "/>
<polyline fill="none" stroke="black" points="80.5,26.5 179.5,26.5 "/>
<text text-anchor="start" x="88.5" y="41.7" font-family="Times,serif" font-size="14.00">_layout</text>
<text text-anchor="start" x="88.5" y="56.7" font-family="Times,serif" font-size="14.00">idol_params</text>
<text text-anchor="start" x="88.5" y="71.7" font-family="Times,serif" font-size="14.00">set_idol</text>
</g>
<!-- AuthorsController -->
<g id="node5" class="node"><title>AuthorsController</title>
<path fill="none" stroke="black" d="M-52,111.5C-52,111.5 40,111.5 40,111.5 46,111.5 52,105.5 52,99.5 52,99.5 52,-89.5 52,-89.5 52,-95.5 46,-101.5 40,-101.5 40,-101.5 -52,-101.5 -52,-101.5 -58,-101.5 -64,-95.5 -64,-89.5 -64,-89.5 -64,99.5 -64,99.5 -64,105.5 -58,111.5 -52,111.5"/>
<text text-anchor="middle" x="-6" y="-86.3" font-family="Times,serif" font-size="14.00">AuthorsController</text>
<polyline fill="none" stroke="black" points="-64,-78.5 52,-78.5 "/>
<text text-anchor="start" x="-56" y="-63.3" font-family="Times,serif" font-size="14.00">create</text>
<text text-anchor="start" x="-56" y="-48.3" font-family="Times,serif" font-size="14.00">destroy</text>
<text text-anchor="start" x="-56" y="-33.3" font-family="Times,serif" font-size="14.00">edit</text>
<text text-anchor="start" x="-56" y="-18.3" font-family="Times,serif" font-size="14.00">index</text>
<text text-anchor="start" x="-56" y="-3.3" font-family="Times,serif" font-size="14.00">new</text>
<text text-anchor="start" x="-56" y="11.7" font-family="Times,serif" font-size="14.00">show</text>
<text text-anchor="start" x="-56" y="26.7" font-family="Times,serif" font-size="14.00">update</text>
<polyline fill="none" stroke="black" points="-64,34.5 52,34.5 "/>
<polyline fill="none" stroke="black" points="-64,58.5 52,58.5 "/>
<text text-anchor="start" x="-56" y="73.7" font-family="Times,serif" font-size="14.00">_layout</text>
<text text-anchor="start" x="-56" y="88.7" font-family="Times,serif" font-size="14.00">author_params</text>
<text text-anchor="start" x="-56" y="103.7" font-family="Times,serif" font-size="14.00">set_author</text>
</g>
</g>
</svg>
