<?xml version="1.0" encoding="UTF-8" standalone="no"?>
<!DOCTYPE svg PUBLIC "-//W3C//DTD SVG 1.1//EN"
 "http://www.w3.org/Graphics/SVG/1.1/DTD/svg11.dtd">
<!-- Generated by graphviz version 2.38.0 (20140413.2041)
 -->
<!-- Title: models_diagram Pages: 1 -->
<svg width="290pt" height="230pt"
 viewBox="0.00 0.00 290.15 230.00" xmlns="http://www.w3.org/2000/svg" xmlns:xlink="http://www.w3.org/1999/xlink">
<g id="graph0" class="graph" transform="scale(1 1) rotate(0) translate(4 226)">
<title>models_diagram</title>
<polygon fill="none" stroke="none" points="-4,4 -4,-226 286.146,-226 286.146,4 -4,4"/>
<!-- _diagram_info -->
<g id="node1" class="node"><title>_diagram_info</title>
<text text-anchor="start" x="8" y="-207.6" font-family="Times,serif" font-size="13.00">Models diagram</text>
<text text-anchor="start" x="8" y="-193.6" font-family="Times,serif" font-size="13.00">Date: Nov 01 2017 &#45; 14:12</text>
<text text-anchor="start" x="8" y="-179.6" font-family="Times,serif" font-size="13.00">Migration version: 0</text>
<text text-anchor="start" x="8" y="-165.6" font-family="Times,serif" font-size="13.00">Generated by RailRoady 1.5.3</text>
<text text-anchor="start" x="8" y="-151.6" font-family="Times,serif" font-size="13.00">http://railroady.prestonlee.com</text>
</g>
<!-- Author -->
<g id="node2" class="node"><title>Author</title>
<ellipse fill="none" stroke="black" cx="236" cy="-183" rx="35.9954" ry="18"/>
<text text-anchor="middle" x="236" y="-179.3" font-family="Times,serif" font-size="14.00">Author</text>
</g>
<!-- Idol -->
<g id="node3" class="node"><title>Idol</title>
<ellipse fill="none" stroke="black" cx="236" cy="-90" rx="27" ry="18"/>
<text text-anchor="middle" x="236" y="-86.3" font-family="Times,serif" font-size="14.00">Idol</text>
</g>
<!-- Author&#45;&gt;Idol -->
<g id="edge1" class="edge"><title>Author&#45;&gt;Idol</title>
<path fill="none" stroke="#89ddc7" d="M236,-156.729C236,-144.725 236,-130.362 236,-118.129"/>
<ellipse fill="none" stroke="#89ddc7" cx="236" cy="-160.884" rx="4" ry="4"/>
<polygon fill="#89ddc7" stroke="#89ddc7" points="236,-118.04 240.5,-108.04 236,-113.04 236,-108.04 236,-108.04 236,-108.04 236,-113.04 231.5,-108.04 236,-118.04 236,-118.04"/>
</g>
<!-- Comment -->
<g id="node4" class="node"><title>Comment</title>
<ellipse fill="none" stroke="black" cx="236" cy="-18" rx="46.2923" ry="18"/>
<text text-anchor="middle" x="236" y="-14.3" font-family="Times,serif" font-size="14.00">Comment</text>
</g>
<!-- Idol&#45;&gt;Comment -->
<g id="edge2" class="edge"><title>Idol&#45;&gt;Comment</title>
<path fill="none" stroke="#fd3091" d="M229.512,-64.2065C229.204,-58.3603 229.168,-52.0976 229.403,-46.1534"/>
<ellipse fill="none" stroke="#fd3091" cx="229.845" cy="-68.4234" rx="4" ry="4"/>
<polygon fill="#fd3091" stroke="#fd3091" points="229.419,-45.9315 234.609,-36.2721 229.77,-40.9439 230.121,-35.9562 230.121,-35.9562 230.121,-35.9562 229.77,-40.9439 225.632,-35.6403 229.419,-45.9315 229.419,-45.9315"/>
</g>
<!-- Comment&#45;&gt;Idol -->
<g id="edge3" class="edge"><title>Comment&#45;&gt;Idol</title>
<path fill="none" stroke="#804a5d" d="M242.599,-46.2171C242.805,-51.4628 242.8,-56.9541 242.583,-62.1869"/>
<polygon fill="#804a5d" stroke="#804a5d" points="242.579,-45.9317 246.368,-35.6412 242.229,-40.9439 241.879,-35.9562 241.879,-35.9562 241.879,-35.9562 242.229,-40.9439 237.39,-36.2712 242.579,-45.9317 242.579,-45.9317"/>
<polygon fill="#804a5d" stroke="#804a5d" points="242.565,-62.4373 237.352,-72.0847 242.202,-67.4241 241.84,-72.411 241.84,-72.411 241.84,-72.411 242.202,-67.4241 246.328,-72.7373 242.565,-62.4373 242.565,-62.4373"/>
</g>
</g>
</svg>
