<?xml version="1.0" encoding="UTF-8" standalone="no"?>
<!DOCTYPE svg PUBLIC "-//W3C//DTD SVG 1.1//EN"
 "http://www.w3.org/Graphics/SVG/1.1/DTD/svg11.dtd">
<!-- Generated by graphviz version 2.38.0 (20140413.2041)
 -->
<!-- Title: models_diagram Pages: 1 -->
<svg width="340pt" height="342pt"
 viewBox="0.00 0.00 340.00 342.00" xmlns="http://www.w3.org/2000/svg" xmlns:xlink="http://www.w3.org/1999/xlink">
<g id="graph0" class="graph" transform="scale(1 1) rotate(0) translate(4 338)">
<title>models_diagram</title>
<polygon fill="none" stroke="none" points="-4,4 -4,-338 336,-338 336,4 -4,4"/>
<!-- _diagram_info -->
<g id="node1" class="node"><title>_diagram_info</title>
<text text-anchor="start" x="8" y="-319.6" font-family="Times,serif" font-size="13.00">Models diagram</text>
<text text-anchor="start" x="8" y="-305.6" font-family="Times,serif" font-size="13.00">Date: Nov 01 2017 &#45; 14:12</text>
<text text-anchor="start" x="8" y="-291.6" font-family="Times,serif" font-size="13.00">Migration version: 0</text>
<text text-anchor="start" x="8" y="-277.6" font-family="Times,serif" font-size="13.00">Generated by RailRoady 1.5.3</text>
<text text-anchor="start" x="8" y="-263.6" font-family="Times,serif" font-size="13.00">http://railroady.prestonlee.com</text>
</g>
<!-- Author -->
<g id="node2" class="node"><title>Author</title>
<path fill="none" stroke="black" d="M212,-264.5C212,-264.5 320,-264.5 320,-264.5 326,-264.5 332,-270.5 332,-276.5 332,-276.5 332,-313.5 332,-313.5 332,-319.5 326,-325.5 320,-325.5 320,-325.5 212,-325.5 212,-325.5 206,-325.5 200,-319.5 200,-313.5 200,-313.5 200,-276.5 200,-276.5 200,-270.5 206,-264.5 212,-264.5"/>
<text text-anchor="middle" x="266" y="-310.3" font-family="Times,serif" font-size="14.00">Author</text>
<polyline fill="none" stroke="black" points="200,-302.5 332,-302.5 "/>
<text text-anchor="start" x="208" y="-287.3" font-family="Times,serif" font-size="14.00">_id :BSON::ObjectId</text>
<text text-anchor="start" x="208" y="-272.3" font-family="Times,serif" font-size="14.00">name :Object</text>
</g>
<!-- Idol -->
<g id="node3" class="node"><title>Idol</title>
<path fill="none" stroke="black" d="M212,-113.5C212,-113.5 320,-113.5 320,-113.5 326,-113.5 332,-119.5 332,-125.5 332,-125.5 332,-207.5 332,-207.5 332,-213.5 326,-219.5 320,-219.5 320,-219.5 212,-219.5 212,-219.5 206,-219.5 200,-213.5 200,-207.5 200,-207.5 200,-125.5 200,-125.5 200,-119.5 206,-113.5 212,-113.5"/>
<text text-anchor="middle" x="266" y="-204.3" font-family="Times,serif" font-size="14.00">Idol</text>
<polyline fill="none" stroke="black" points="200,-196.5 332,-196.5 "/>
<text text-anchor="start" x="208" y="-181.3" font-family="Times,serif" font-size="14.00">_id :BSON::ObjectId</text>
<text text-anchor="start" x="208" y="-166.3" font-family="Times,serif" font-size="14.00">age :Integer</text>
<text text-anchor="start" x="208" y="-151.3" font-family="Times,serif" font-size="14.00">author_id :Object</text>
<text text-anchor="start" x="208" y="-136.3" font-family="Times,serif" font-size="14.00">name :String</text>
<text text-anchor="start" x="208" y="-121.3" font-family="Times,serif" font-size="14.00">test :String</text>
</g>
<!-- Author&#45;&gt;Idol -->
<g id="edge1" class="edge"><title>Author&#45;&gt;Idol</title>
<path fill="none" stroke="#34e86b" d="M266,-256.216C266,-247.842 266,-238.753 266,-229.693"/>
<ellipse fill="none" stroke="#34e86b" cx="266" cy="-260.341" rx="4" ry="4"/>
<polygon fill="#34e86b" stroke="#34e86b" points="266,-229.516 270.5,-219.516 266,-224.516 266,-219.516 266,-219.516 266,-219.516 266,-224.516 261.5,-219.516 266,-229.516 266,-229.516"/>
</g>
<!-- Comment -->
<g id="node4" class="node"><title>Comment</title>
<path fill="none" stroke="black" d="M212,-0.5C212,-0.5 320,-0.5 320,-0.5 326,-0.5 332,-6.5 332,-12.5 332,-12.5 332,-64.5 332,-64.5 332,-70.5 326,-76.5 320,-76.5 320,-76.5 212,-76.5 212,-76.5 206,-76.5 200,-70.5 200,-64.5 200,-64.5 200,-12.5 200,-12.5 200,-6.5 206,-0.5 212,-0.5"/>
<text text-anchor="middle" x="266" y="-61.3" font-family="Times,serif" font-size="14.00">Comment</text>
<polyline fill="none" stroke="black" points="200,-53.5 332,-53.5 "/>
<text text-anchor="start" x="208" y="-38.3" font-family="Times,serif" font-size="14.00">_id :BSON::ObjectId</text>
<text text-anchor="start" x="208" y="-23.3" font-family="Times,serif" font-size="14.00">content :String</text>
<text text-anchor="start" x="208" y="-8.3" font-family="Times,serif" font-size="14.00">name :String</text>
</g>
<!-- Idol&#45;&gt;Comment -->
<g id="edge2" class="edge"><title>Idol&#45;&gt;Comment</title>
<path fill="none" stroke="#daf4ac" d="M259.255,-105.024C259.232,-98.9414 259.292,-92.8276 259.437,-86.9096"/>
<ellipse fill="none" stroke="#daf4ac" cx="259.296" cy="-109.159" rx="4" ry="4"/>
<polygon fill="#daf4ac" stroke="#daf4ac" points="259.451,-86.5121 264.286,-76.6699 259.62,-81.5149 259.789,-76.5178 259.789,-76.5178 259.789,-76.5178 259.62,-81.5149 255.291,-76.3657 259.451,-86.5121 259.451,-86.5121"/>
</g>
<!-- Comment&#45;&gt;Idol -->
<g id="edge3" class="edge"><title>Comment&#45;&gt;Idol</title>
<path fill="none" stroke="#83a86a" d="M272.555,-86.5769C272.689,-91.9363 272.754,-97.4603 272.75,-102.979"/>
<polygon fill="#83a86a" stroke="#83a86a" points="272.552,-86.512 276.709,-76.3643 272.382,-81.5149 272.211,-76.5178 272.211,-76.5178 272.211,-76.5178 272.382,-81.5149 267.714,-76.6713 272.552,-86.512 272.552,-86.512"/>
<polygon fill="#83a86a" stroke="#83a86a" points="272.748,-103.16 268.164,-113.121 272.706,-108.159 272.663,-113.159 272.663,-113.159 272.663,-113.159 272.706,-108.159 277.163,-113.198 272.748,-103.16 272.748,-103.16"/>
</g>
</g>
</svg>
